<?xml version="1.0" encoding="UTF-8"?>
<svg enable-background="new -33.068 -48.833 905.136 1336.666" version="1.1" viewBox="-33.068 -48.833 905.136 1336.666" xml:space="preserve" xmlns="http://www.w3.org/2000/svg">
<path fill="#F80652" d="m475.6 0h0.79c-5.65 4.82-11.31 9.71-15.89 15.59-8.29 10.27-13.27 23.18-13.79 36.38-0.36 16.8 5.55 33.35 15.15 47 3.87 5.5 10.02 10.39 17.11 9.89 4.97-0.14 8.51-4.52 10.1-8.86 6.4-17.13 8.77-36.2 19.8-51.29 6.6-9.34 18.07-14.33 29.35-14.13-4.62 3.12-9.38 6.19-12.94 10.56-12.78 14.99-19.25 34.46-21.47 53.8-0.78 9.93-0.86 20.53 3.78 29.61 2.35 4.83 7.16 8.16 12.45 8.9 16.17 2.43 33.59-5.05 42.74-18.66 3.51-4.93 5.2-10.82 6.45-16.67 0.55-4.09-0.18-8.25 0.56-12.31 4.97 10.5 5.52 22.96 1.06 33.73-1.8 5.82-6.12 11.32-5.17 17.65 1.87 3.87 6.44 5.2 10.3 6.15 11.95 2.07 23.78-3.13 33.42-9.78 11.89-8.6 21.03-20.34 28.95-32.54-2.67 6.48-3.86 13.43-6.12 20.04-5.43 14.62-17.12 27.36-32.26 31.98-18.54 5.9-38.2 2.67-57.03 0.27-5.91-1.08-11.95-0.99-17.92-0.52-4.5 1.01-9.27 2.32-12.5 5.84-3.84 4.01-3.99 10.35-1.98 15.27 2.3 5.74 6.68 10.39 11.46 14.19 5.83 4.6 11.81 9.41 19.07 11.52 9.32 3.03 19.22 2.56 28.85 3.68 13.73 0.7 27.49 1.8 41.02 4.38 10.15 2.08 20.18 4.68 30.12 7.62 18.58 5.15 37.58 9.28 55.33 16.98 8.39 4 17.69 8.72 21.61 17.68 1.88 6.54 0.64 14.09-3.37 19.61-4.93 4.86-12.69 3.22-18.38 6.48-6.07 5.12-12.36 10.17-19.67 13.42-3.64 1.65-7.73 0.81-11.56 1.54-11.13 1.44-22.92 4.81-30.62 13.5-2.28 2.61-4.95 5.75-4.12 9.49 2.9 20.19 4.52 40.58 4.01 60.99-0.78 16.38-2.03 32.73-3.57 49.06-0.14 4.63-0.44 9.35 0.67 13.9 1.45 7.08 5.14 13.41 8.84 19.52 5.67 9.4 11.94 18.42 17.74 27.74 11.54 19.36 18.77 41 23.83 62.87l0.42 0.68c2.25 10.4 4.75 20.75 6.75 31.2 32.94-11.41 66.38-21.38 100.21-29.81 7.58-2.04 14.96-5.46 22.92-5.55 6.64 0.03 12.07 4.8 15.23 10.29 3.9 6.53 9.6 12.22 11.67 19.68v6.75c-3.02 14.12-12.04 25.74-18.24 38.51-6.35 12.56-12.43 25.86-12.68 40.2 0.14 18.65 1.02 37.36-0.31 55.99-0.13 2.86 0.06 5.93-1.5 8.47-2.78 5.02-7.87 8.01-11.86 11.93-15.69 14.22-28.11 31.47-40.82 48.27-2.78 3.62-5.64 7.31-9.51 9.85-0.77-0.52-1.54-1.02-2.31-1.51-3.11-7.47 1.13-15.48-0.76-23.12-0.96-7.02-3.15-14.01-2.83-21.13 4.5-11.74 18.18-15.69 24.94-25.76 6.72-8.87 4.61-20.61 6.07-30.94 0.91-23.04 1.79-46.28 7.38-68.77-16.05 5.6-30.52 14.94-43.56 25.72-16.29 13.11-30.93 28.32-48.47 39.83-14.28 6.23-30.04 8.37-44.29 14.71-28.59 18.41-60.5 31.15-93.24 40.01-41.11 11.42-83.5 17.1-125.09 26.37-35.93 8.09-72.29 19.47-101.78 42.33-14.01 11-21.6 27.58-29.63 43-7.44 14.35-15.33 28.83-26.64 40.56-12.08 10.85-25.68 19.83-38.86 29.27-29.59 20.74-59.36 41.39-86.85 64.91-10.09 8.59-19.55 17.91-28.58 27.6-8.61 9.98-16.93 20.73-21.03 33.43-2.47 7.38-1.87 15.26-2.28 22.92-1.36 24.03-1.45 48.29-6.23 71.98-2.9 14.93-8.8 29.69-19.39 40.86-5.1 5.93-12.02 9.85-17.38 15.5-6.68 6.63-12.69 14-20.29 19.65-6.94 5.5-14.92 9.41-22.98 12.99v-13.52c0.62-12.92 1.42-25.83 1.88-38.76 1.75-2.01 4.44-2.89 6.59-4.39 7.51-4.83 15.22-9.98 20.36-17.45 4.56-6.64 4.98-14.96 8.03-22.24 1.83-4.32 1.54-9.07 1.99-13.63 2.34-25.95 2.17-52.08-0.24-78.01-0.76-12.76-3.47-26.55 2.65-38.46 5.78-11.09 14.27-20.44 22.44-29.8 11.52-12.81 23.58-25.16 34.4-38.6 6.18-6.96 11.71-14.56 15.86-22.91 6.69-13.3 9.09-28.45 8.3-43.23-1.67-24.06-9.27-47.14-12.93-70.89-1.28-7.35-1.32-14.86-2.97-22.14-4.2-22.23-0.08-45.14 7.26-66.27-15.78 0.14-30.83-6.12-43.91-14.52-8.17-5.37-16.68-10.36-23.89-17.03-7.68-6.7-15.13-14.77-17.28-25.06-1.84-6.99-0.14-14.22 1.57-21.05 5.04-17.73 15.46-33.52 28.14-46.72 0.26 5.57 0.13 11.17 0.88 16.71 1.41 19.44 7.58 38.89 19.55 54.44 6.76 6.21 13.03 13.21 21.18 17.66 9.24 5.2 19.79 7.57 30.26 8.58 16.03-15.82 33.36-31.08 54.27-40.05 20.85-9.11 43.72-11.5 65.95-15.15 12.9-2.15 26.18-3.61 38.2-9.12 13.83-6.39 25.58-16.27 38.63-23.99 29.68-18.05 62.86-30.81 89.28-53.87 8.97-7.73 16.31-17.06 23.91-26.08 12.14-14.79 23.99-29.91 33.67-46.46 7.56-12.67 13.2-26.54 16.16-41.02 2.9-14.24 3.92-28.8 4.96-43.26-1.04-2.86 0.92-5.58 0.94-8.44 0.7-9.74 2.17-19.39 3.04-29.11 0.53-9.36-1.48-18.61-3.51-27.69-5.28-22.41-3.59-45.67-1.86-68.39 0.91-5.4 0.48-10.94 1.69-16.3-9.41-2.98-18.92-7.14-25.35-14.93-7.97-9.73-12.73-21.54-19.57-32.01 10.84-3.55 22.84-4.32 33.58 0.03 4.83 1.62 8.85 4.84 13.43 6.98-0.2-0.38-0.6-1.12-0.81-1.49-0.92-8.29-3.32-16.36-6.31-24.12-13.54-34.67-40.29-62.12-54.66-96.36-5.01-17.26-5.54-37.17 4-53.02 7.93-13.45 21.77-21.92 35.84-27.8z"/>
</svg>
