<svg xmlns="http://www.w3.org/2000/svg" width="230" height="330" viewBox="0 0 230 330">
  <path id="logo" d="M130.379,0h.217a29.758,29.758,0,0,0-4.356,4.153,16.326,16.326,0,0,0-3.78,9.69,20.842,20.842,0,0,0,4.153,12.519A5.626,5.626,0,0,0,131.3,29a3.31,3.31,0,0,0,2.769-2.36c1.754-4.563,2.4-9.642,5.428-13.661a9.777,9.777,0,0,1,8.046-3.764A15.559,15.559,0,0,0,144,12.023a26.241,26.241,0,0,0-5.886,14.33c-.214,2.645-.236,5.468,1.036,7.887a4.5,4.5,0,0,0,3.413,2.371,12.4,12.4,0,0,0,11.717-4.97,11.553,11.553,0,0,0,1.768-4.44c.151-1.089-.049-2.2.154-3.279a10.9,10.9,0,0,1,.291,8.984c-.493,1.55-1.678,3.015-1.417,4.7.513,1.031,1.765,1.385,2.824,1.638,3.276.551,6.519-.834,9.162-2.6a32.015,32.015,0,0,0,7.936-8.667c-.732,1.726-1.058,3.577-1.678,5.338a14.054,14.054,0,0,1-8.844,8.518c-5.082,1.572-10.472.711-15.634.072a19.563,19.563,0,0,0-4.913-.139,6.413,6.413,0,0,0-3.427,1.556,3.765,3.765,0,0,0-.543,4.067,9.6,9.6,0,0,0,3.142,3.78,16.043,16.043,0,0,0,5.228,3.068c2.555.807,5.269.682,7.909.98A84.669,84.669,0,0,1,167.48,56.38c2.783.554,5.532,1.247,8.257,2.03,5.093,1.372,10.3,2.472,15.168,4.523,2.3,1.065,4.849,2.323,5.924,4.709a6.035,6.035,0,0,1-.924,5.223c-1.351,1.294-3.479.858-5.039,1.726a23.249,23.249,0,0,1-5.392,3.575c-1,.439-2.119.216-3.169.41-3.051.384-6.283,1.281-8.394,3.6-.625.7-1.357,1.532-1.129,2.528a94.526,94.526,0,0,1,1.1,16.245c-.214,4.363-.557,8.718-.979,13.067a13.406,13.406,0,0,0,.184,3.7,16.54,16.54,0,0,0,2.423,5.2c1.554,2.5,3.273,4.906,4.863,7.389a57.1,57.1,0,0,1,6.533,16.746l.115.181c.617,2.77,1.3,5.527,1.85,8.31q13.545-4.559,27.471-7.94c2.078-.543,4.1-1.454,6.283-1.478a5.106,5.106,0,0,1,4.175,2.741c1.069,1.739,2.632,3.255,3.2,5.242v1.8c-.828,3.761-3.3,6.856-5,10.257-1.741,3.345-3.408,6.888-3.476,10.708.038,4.968.28,9.951-.085,14.913a4.447,4.447,0,0,1-.411,2.256c-.762,1.337-2.157,2.134-3.251,3.178-4.3,3.788-7.706,8.382-11.19,12.857a11.073,11.073,0,0,1-2.607,2.624c-.211-.139-.422-.272-.633-.4-.853-1.99.31-4.123-.208-6.158a30.7,30.7,0,0,1-.776-5.628c1.234-3.127,4.984-4.179,6.837-6.861,1.842-2.363,1.264-5.49,1.664-8.241.249-6.137.491-12.327,2.023-18.317a39.6,39.6,0,0,0-11.941,6.851c-4.466,3.492-8.479,7.543-13.287,10.609-3.915,1.659-8.235,2.229-12.141,3.918a92.292,92.292,0,0,1-25.56,10.657c-11.27,3.042-22.89,4.555-34.292,7.024-9.85,2.155-19.817,5.186-27.9,11.275-3.841,2.93-5.921,7.346-8.123,11.453-2.04,3.822-4.2,7.679-7.3,10.8a120.823,120.823,0,0,1-10.653,7.8C53.572,253,45.411,258.5,37.875,264.761a93.357,93.357,0,0,0-7.835,7.351c-2.36,2.658-4.641,5.522-5.765,8.9-.677,1.966-.513,4.065-.625,6.1-.373,6.4-.4,12.862-1.708,19.172a21.391,21.391,0,0,1-5.315,10.883c-1.4,1.579-3.3,2.624-4.764,4.129A53.644,53.644,0,0,1,6.3,326.54,29,29,0,0,1,0,330v-3.6c.17-3.441.389-6.88.515-10.324a8.922,8.922,0,0,1,1.807-1.169A18.571,18.571,0,0,0,7.9,310.258c1.25-1.769,1.365-3.985,2.2-5.924a11.783,11.783,0,0,0,.546-3.63,110.766,110.766,0,0,0-.066-20.779c-.208-3.4-.951-7.072.726-10.244a42.162,42.162,0,0,1,6.152-7.937c3.158-3.412,6.464-6.7,9.43-10.281a28.137,28.137,0,0,0,4.348-6.1,22.384,22.384,0,0,0,2.275-11.515c-.458-6.409-2.541-12.556-3.545-18.882-.351-1.958-.362-3.958-.814-5.9-1.151-5.921-.022-12.023,1.99-17.651a22.724,22.724,0,0,1-12.037-3.868,48.767,48.767,0,0,1-6.549-4.536c-2.105-1.785-4.148-3.934-4.737-6.675a11.009,11.009,0,0,1,.43-5.607,30.031,30.031,0,0,1,7.714-12.444c.071,1.484.036,2.975.241,4.451a26.487,26.487,0,0,0,5.359,14.5c1.853,1.654,3.572,3.519,5.806,4.7a21.393,21.393,0,0,0,8.3,2.285c4.394-4.214,9.145-8.278,14.877-10.668,5.716-2.426,11.985-3.063,18.079-4.035,3.536-.573,7.177-.962,10.472-2.429,3.791-1.7,7.012-4.334,10.59-6.39,8.136-4.808,17.232-8.206,24.475-14.349a59.837,59.837,0,0,0,6.555-6.947,96.938,96.938,0,0,0,9.23-12.375,34.58,34.58,0,0,0,4.43-10.926,87.527,87.527,0,0,0,1.36-11.523c-.285-.762.252-1.486.258-2.248.192-2.594.595-5.165.833-7.754a26.27,26.27,0,0,0-.962-7.375c-1.447-5.969-.984-12.165-.51-18.216.249-1.438.132-2.914.463-4.342-2.58-.794-5.187-1.9-6.949-3.977-2.185-2.592-3.49-5.737-5.365-8.526a13.818,13.818,0,0,1,9.205.008,36.722,36.722,0,0,1,3.682,1.859c-.055-.1-.164-.3-.222-.4a25.347,25.347,0,0,0-1.73-6.425c-3.712-9.235-11.045-16.546-14.984-25.666-1.373-4.6-1.519-9.9,1.1-14.122,2.174-3.582,5.968-5.839,9.825-7.4Z" transform="translate(0)" fill="#fff"/>
</svg>
